<?xml version="1.0" encoding="UTF-8" standalone="no"?>
<svg width="31px" height="35px" viewBox="0 0 31 35" version="1.1" xmlns="http://www.w3.org/2000/svg" xmlns:xlink="http://www.w3.org/1999/xlink" xmlns:sketch="http://www.bohemiancoding.com/sketch/ns">
    <!-- Generator: Sketch 3.3 (11970) - http://www.bohemiancoding.com/sketch -->
    <title>snow</title>
    <desc>Created with Sketch.</desc>
    <defs></defs>
    <g id="Welcome" stroke="none" stroke-width="1" fill="none" fill-rule="evenodd" sketch:type="MSPage">
        <g id="Desktop-3" sketch:type="MSArtboardGroup" transform="translate(-73.000000, -629.000000)" fill="#FFFFFF">
            <path d="M103.338365,637.157019 L97.2692308,640.657692 L97.2692308,635.057692 L95.9230769,635.730769 L95.9230769,641.435096 L89.1923077,645.320769 L89.1923077,637.397308 L93.9038462,634.679423 L93.9038462,633.436923 L89.1923077,636.154135 L89.1923077,629 L87.8461538,629 L87.8461538,636.154135 L83.1346154,633.430192 L83.1346154,634.674038 L87.8461538,637.397308 L87.8461538,645.3275 L81.1153846,641.435096 L81.1153846,635.730769 L79.7692308,635.057692 L79.7692308,640.657692 L73.7007692,637.157019 L73.0384615,638.329519 L79.2233654,641.900192 L74.2325,644.780962 L75.30875,645.402885 L80.2996154,642.521442 L87.1730769,646.489904 L80.2693269,650.476538 L75.2952885,647.605192 L74.2183654,648.226442 L79.1917308,651.098462 L73.0384615,654.676538 L73.7007692,655.823462 L79.7692308,652.316058 L79.7692308,657.942308 L81.1153846,657.28 L81.1153846,651.538654 L87.8461538,647.652981 L87.8461538,655.638365 L83.1346154,658.361635 L83.1346154,659.605481 L87.8461538,656.881538 L87.8461538,664 L89.1923077,664 L89.1923077,656.881538 L93.9038462,659.59875 L93.9038462,658.355577 L89.1923077,655.638365 L89.1923077,647.659712 L95.9230769,651.538654 L95.9230769,657.28 L97.2692308,657.942308 L97.2692308,652.316058 L103.338365,655.823462 L104,654.650288 L97.8474038,651.098462 L102.820096,648.226442 L101.743846,647.605192 L96.7698077,650.476538 L89.8653846,646.489904 L96.7395192,642.521442 L101.729712,645.402885 L102.806635,644.780962 L97.8157692,641.900192 L104,638.329519 L103.338365,637.157019" id="snow" sketch:type="MSShapeGroup"></path>
        </g>
    </g>
</svg>